<?xml version="1.0" encoding="UTF-8"?><svg id="Layer_1" xmlns="http://www.w3.org/2000/svg" viewBox="0 0 54.67 87.85"><defs><style>.cls-1{font-family:Bauhaus93, 'Bauhaus 93';font-size:12px;}.cls-1,.cls-2{isolation:isolate;}.cls-3{fill:none;}</style></defs><g class="cls-2"><text class="cls-1" transform="translate(4.83 78.73)"><tspan x="0" y="0">MAYONE</tspan></text></g><line class="cls-3" x1="38.5" y1="74.95" x2="110.16" y2="4.24"/><path d="m35.6,31.84c1.43,2.68,2.16,5.35,2.69,8.03.5,2.68.74,5.35.73,8.03,0,2.68-.24,5.35-.74,8.03-.53,2.68-1.27,5.35-2.68,8.03h-.4c-.08-2.68-.13-5.35-.13-8.03l-.07-8.03.07-8.03c0-2.68.05-5.35.13-8.03h.4Z"/><path d="m24.38,21.93c9.05,2.75,16.33,8.64,22.42,15.62,1.94,2.38,3.78,4.88,5.15,7.93l-.26.31c-6.49-5.28-14.43-12.02-20.77-17.55-2.29-1.97-4.56-3.97-6.81-5.99l.26-.31h0Z"/><line class="cls-3" x1="15.76" y1="70.71" x2="87.42" y2="0"/><path d="m12.87,27.6c1.43,2.8,2.16,5.6,2.69,8.4.5,2.8.74,5.6.73,8.4,0,2.8-.24,5.6-.74,8.4-.53,2.8-1.27,5.6-2.68,8.4h-.4c-.08-2.8-.13-5.6-.13-8.4l-.07-8.4.07-8.4c0-2.8.05-5.6.13-8.4h.4Z"/><path d="m1.64,17.7c9.05,2.75,16.33,8.64,22.42,15.62,1.94,2.38,3.78,4.88,5.15,7.93l-.26.31c-6.49-5.28-14.43-12.02-20.77-17.55-2.29-1.97-4.56-3.97-6.81-5.99l.26-.31h.01Z"/></svg>